<mxfile host="app.diagrams.net" modified="2023-07-07T15:07:23.613Z" agent="Mozilla/5.0 (Windows NT 10.0; Win64; x64) AppleWebKit/537.36 (KHTML, like Gecko) Chrome/114.0.0.0 Safari/537.36" version="21.6.1" etag="-StweA5GsgloCXZrWFsE" type="github">
  <diagram name="페이지-1" id="-9rf2FdvU90T_X6p0Ujk">
    <mxGraphModel>
      <root>
        <mxCell id="0" />
        <mxCell id="1" parent="0" />
      </root>
    </mxGraphModel>
  </diagram>
</mxfile>
